<svg xmlns="http://www.w3.org/2000/svg" width="154" height="154" viewBox="0 0 154 154" fill="none">
  <path d="M76.5867 153.173C118.884 153.173 153.173 118.884 153.173 76.5867C153.173 34.289 118.884 0 76.5867 0C34.289 0 0 34.289 0 76.5867C0 118.884 34.289 153.173 76.5867 153.173Z" fill="#EF5350"/>
  <path d="M99.5626 121.773C84.7559 109.519 68.4174 109.519 53.6106 121.773C51.8236 123.305 50.2919 120.752 51.5683 118.454C56.1635 109.774 65.0986 101.86 76.5866 101.86C88.0746 101.86 97.265 109.774 101.605 118.454C102.881 120.496 101.35 123.049 99.5626 121.773Z" fill="#302424"/>
  <path d="M20.9337 58.4612C17.1044 70.4598 22.4654 83.9901 34.464 89.3511C46.2073 94.9675 59.9929 90.6276 66.8857 79.9054L49.2708 60.2482L20.9337 58.4612Z" fill="white"/>
  <path d="M31.1452 60.7587C27.5712 68.1621 30.8899 77.0972 38.2933 80.416C45.6967 83.99 54.6318 80.6713 57.9505 73.2679C60.5034 68.4174 33.4428 55.9082 31.1452 60.7587Z" fill="#302424"/>
  <path d="M20.9337 58.4612C25.0183 55.9083 29.8688 54.6318 34.7193 54.6318C39.5697 54.6318 44.4202 55.9083 49.0154 57.9506C53.3553 59.9929 57.44 63.0564 60.7587 66.6304C63.8222 70.4597 66.3751 74.7997 66.8857 79.6502C63.5669 76.3314 60.2481 73.5232 56.6741 70.9703C53.1001 68.4174 49.526 66.3751 45.952 64.8434C42.1226 63.0564 38.2933 61.7799 34.2087 60.5035C29.6135 59.7376 25.5289 58.9717 20.9337 58.4612Z" fill="#302424"/>
  <path d="M132.24 58.4612C136.069 70.4598 130.708 83.9901 118.709 89.3511C106.966 94.9675 93.1805 90.6276 86.2877 79.9054L103.903 60.2482L132.24 58.4612Z" fill="white"/>
  <path d="M122.028 60.7587C125.602 68.1621 122.283 77.0972 114.88 80.416C107.477 83.99 98.5415 80.6713 95.2228 73.2679C92.6699 68.4174 119.731 55.9082 122.028 60.7587Z" fill="#302424"/>
  <path d="M132.24 58.4612C128.155 55.9083 123.305 54.6318 118.454 54.6318C113.604 54.6318 108.753 55.9083 104.158 57.9506C99.818 59.9929 95.7334 63.0564 92.4146 66.6304C89.3511 70.4597 86.7982 74.7997 86.2877 79.6502C89.6064 76.3314 92.9252 73.5232 96.4992 70.9703C100.073 68.4174 103.647 66.3751 107.221 64.8434C111.051 63.0564 114.88 61.7799 118.965 60.5035C123.56 59.7376 127.644 58.9717 132.24 58.4612Z" fill="#302424"/>
</svg>