<svg xmlns="http://www.w3.org/2000/svg" width="154" height="154" viewBox="0 0 154 154" fill="none">
  <path d="M76.5867 153.173C118.884 153.173 153.173 118.884 153.173 76.5867C153.173 34.289 118.884 0 76.5867 0C34.289 0 0 34.289 0 76.5867C0 118.884 34.289 153.173 76.5867 153.173Z" fill="#FFDD67"/>
  <path d="M47.2284 75.5655C54.278 75.5655 59.9928 69.8507 59.9928 62.8011C59.9928 55.7515 54.278 50.0366 47.2284 50.0366C40.1788 50.0366 34.464 55.7515 34.464 62.8011C34.464 69.8507 40.1788 75.5655 47.2284 75.5655Z" fill="#664E27"/>
  <path d="M105.945 75.5654C112.994 75.5654 118.709 69.8506 118.709 62.8009C118.709 55.7513 112.994 50.0365 105.945 50.0365C98.8952 50.0365 93.1804 55.7513 93.1804 62.8009C93.1804 69.8506 98.8952 75.5654 105.945 75.5654Z" fill="#664E27"/>
  <path d="M108.753 97.7757C88.0746 112.327 65.0986 112.072 44.4202 97.7757C41.8673 95.9886 39.825 99.0521 41.3567 101.86C47.7389 112.072 60.2481 121.518 76.5866 121.518C92.9251 121.518 105.434 112.327 111.816 101.86C113.348 99.0521 111.306 95.9886 108.753 97.7757Z" fill="#664E27"/>
</svg>