<svg xmlns="http://www.w3.org/2000/svg" width="154" height="154" viewBox="0 0 154 154" fill="none">
  <path d="M153.173 76.5867C153.173 118.965 118.965 153.173 76.5867 153.173C34.2087 153.173 0 118.965 0 76.5867C0 34.2087 34.2087 0 76.5867 0C118.965 0 153.173 34.2087 153.173 76.5867Z" fill="#FFDD67"/>
  <path d="M119.986 91.9039C119.986 89.8616 118.709 87.3088 115.391 86.5429C106.455 84.7559 93.4357 83.2241 76.5866 83.2241C59.7376 83.2241 46.7178 85.0112 37.7827 86.5429C34.464 87.3088 33.1875 89.8616 33.1875 91.9039C33.1875 110.54 47.4837 129.176 76.5866 129.176C105.69 129.176 119.986 110.54 119.986 91.9039Z" fill="#664E27"/>
  <path d="M67.6516 63.5668C62.8011 50.5471 55.653 43.9095 48.5049 43.9095C41.3568 43.9095 34.2087 50.5471 29.3582 63.5668C28.8477 64.8432 31.4005 67.1408 32.677 65.8644C37.2722 61.0139 42.8885 58.9716 48.5049 58.9716C54.1213 58.9716 59.7376 61.0139 64.3328 65.8644C65.8645 67.1408 68.1621 64.8432 67.6516 63.5668Z" fill="#664E27"/>
  <path d="M123.56 63.5668C118.709 50.5471 111.561 43.9095 104.413 43.9095C97.2651 43.9095 90.117 50.5471 85.2665 63.5668C84.7559 64.8432 87.3088 67.1408 88.5852 65.8644C93.1804 61.0139 98.7968 58.9716 104.413 58.9716C110.285 58.9716 115.646 61.0139 120.241 65.8644C121.517 67.1408 124.07 64.8432 123.56 63.5668Z" fill="#664E27"/>
  <path d="M109.008 92.67C103.392 91.6488 91.6487 90.1171 76.5867 90.1171C61.5246 90.1171 49.7813 91.6488 44.165 92.67C40.8462 93.1805 40.5909 94.457 40.8462 96.4993C41.1015 97.5204 41.1015 99.0522 41.6121 100.584C41.8674 102.116 42.378 102.882 44.9309 102.626C49.7813 102.116 103.647 102.116 108.498 102.626C111.051 102.882 111.306 102.116 111.817 100.584C112.072 99.0522 112.327 97.7757 112.582 96.4993C112.582 94.457 112.327 93.1805 109.008 92.67Z" fill="white"/>
  <path d="M153.173 76.5867C153.173 118.965 118.965 153.173 76.5867 153.173C34.2087 153.173 0 118.965 0 76.5867C0 34.2087 34.2087 0 76.5867 0C118.965 0 153.173 34.2087 153.173 76.5867Z" fill="#FFDD67"/>
  <path d="M119.986 91.9039C119.986 89.8616 118.709 87.3088 115.391 86.5429C106.455 84.7559 93.4357 83.2241 76.5866 83.2241C59.7376 83.2241 46.7178 85.0112 37.7827 86.5429C34.464 87.3088 33.1875 89.8616 33.1875 91.9039C33.1875 110.54 47.4837 129.176 76.5866 129.176C105.69 129.176 119.986 110.54 119.986 91.9039Z" fill="#664E27"/>
  <path d="M67.6516 63.5668C62.8011 50.5471 55.653 43.9095 48.5049 43.9095C41.3568 43.9095 34.2087 50.5471 29.3582 63.5668C28.8477 64.8432 31.4005 67.1408 32.677 65.8644C37.2722 61.0139 42.8885 58.9716 48.5049 58.9716C54.1213 58.9716 59.7376 61.0139 64.3328 65.8644C65.8645 67.1408 68.1621 64.8432 67.6516 63.5668Z" fill="#664E27"/>
  <path d="M123.56 63.5668C118.709 50.5471 111.561 43.9095 104.413 43.9095C97.2651 43.9095 90.117 50.5471 85.2665 63.5668C84.7559 64.8432 87.3088 67.1408 88.5852 65.8644C93.1804 61.0139 98.7968 58.9716 104.413 58.9716C110.285 58.9716 115.646 61.0139 120.241 65.8644C121.517 67.1408 124.07 64.8432 123.56 63.5668Z" fill="#664E27"/>
  <path d="M109.008 92.67C103.392 91.6488 91.6487 90.1171 76.5867 90.1171C61.5246 90.1171 49.7813 91.6488 44.165 92.67C40.8462 93.1805 40.5909 94.457 40.8462 96.4993C41.1015 97.5204 41.1015 99.0522 41.6121 100.584C41.8674 102.116 42.378 102.626 44.9309 102.626H108.498C111.051 102.626 111.306 102.116 111.817 100.584C112.072 99.0522 112.327 97.7757 112.582 96.4993C112.582 94.457 112.327 93.1805 109.008 92.67Z" fill="white"/>
</svg>