<svg xmlns="http://www.w3.org/2000/svg" width="154" height="154" viewBox="0 0 154 154" fill="none">
  <path d="M76.5867 153.173C118.884 153.173 153.173 118.884 153.173 76.5867C153.173 34.289 118.884 0 76.5867 0C34.289 0 0 34.289 0 76.5867C0 118.884 34.289 153.173 76.5867 153.173Z" fill="#FFDD67"/>
  <path d="M47.2284 78.1184C54.278 78.1184 59.9928 72.4035 59.9928 65.3539C59.9928 58.3043 54.278 52.5895 47.2284 52.5895C40.1788 52.5895 34.464 58.3043 34.464 65.3539C34.464 72.4035 40.1788 78.1184 47.2284 78.1184Z" fill="#664E27"/>
  <path d="M105.945 78.1184C112.994 78.1184 118.709 72.4035 118.709 65.3539C118.709 58.3043 112.994 52.5895 105.945 52.5895C98.8953 52.5895 93.1804 58.3043 93.1804 65.3539C93.1804 72.4035 98.8953 78.1184 105.945 78.1184Z" fill="#664E27"/>
  <path d="M94.2015 117.433H58.9717C55.1423 117.433 55.1423 107.221 58.9717 107.221H93.9462C98.0309 107.221 98.0309 117.433 94.2015 117.433Z" fill="#664E27"/>
</svg>