<svg xmlns="http://www.w3.org/2000/svg" width="154" height="154" viewBox="0 0 154 154" fill="none">
<path d="M76.5867 153.173C118.884 153.173 153.173 118.884 153.173 76.5867C153.173 34.289 118.884 0 76.5867 0C34.289 0 0 34.289 0 76.5867C0 118.884 34.289 153.173 76.5867 153.173Z" fill="#FFDD67"/>
<path d="M59.9929 67.3962C63.5669 74.7996 58.9717 84.2453 50.0366 88.5852C41.1015 92.6698 30.8899 90.1169 27.3159 82.7135C25.2736 77.863 57.9506 62.5457 59.9929 67.3962ZM93.1804 67.3962C89.6064 74.7996 94.2016 84.2453 103.137 88.5852C112.072 92.6698 122.283 90.1169 125.857 82.7135C127.9 77.863 95.2227 62.5457 93.1804 67.3962Z" fill="#664E27"/>
<path d="M52.8448 45.4415C45.952 53.866 29.3582 61.5247 18.3808 61.5247C16.849 61.5247 16.5937 67.1411 18.3808 67.1411C30.8899 67.1411 49.0154 58.7165 57.1847 49.0156C58.4611 47.7391 53.8659 44.4204 52.8448 45.4415ZM100.328 45.4415C107.221 53.866 123.815 61.5247 134.793 61.5247C136.324 61.5247 136.58 67.1411 134.793 67.1411C122.283 67.1411 104.158 58.7165 95.9886 49.0156C94.7121 47.7391 99.3073 44.4204 100.328 45.4415Z" fill="#917524"/>
<path d="M98.5415 113.348C84.7559 106.966 68.4174 106.966 54.6318 113.348C51.3131 114.88 55.3977 124.07 58.9718 122.283C68.1622 117.944 81.6925 116.412 94.4569 122.283C97.7757 123.815 102.116 115.135 98.5415 113.348Z" fill="#664E27"/>
</svg>